<svg width="40" height="40" viewBox="0 0 40 40" fill="none" xmlns="http://www.w3.org/2000/svg">
<path d="M24.2861 18.4709L27.0154 13.7651L34.372 25.4079L34.3755 27.6424L34.3516 12.2669C34.3341 11.891 34.1377 11.5472 33.8244 11.3445L20.5797 3.6031C20.2701 3.44831 19.877 3.4501 19.5677 3.608C19.5259 3.62916 19.4866 3.65234 19.4492 3.67762L19.403 3.7071L6.54706 11.2771L6.49722 11.3001C6.43308 11.3301 6.36816 11.3682 6.30738 11.4124C6.06357 11.59 5.90175 11.8527 5.84939 12.1473C5.8415 12.192 5.83569 12.2374 5.83301 12.2834L5.85322 24.8129L12.7055 14.0209C13.5683 12.5899 15.4479 12.129 17.1928 12.154L19.2407 12.2089L7.17392 31.8726L8.59635 32.7047L20.8076 12.2289L26.2051 12.209L14.0253 33.2015L19.1009 36.168L19.7074 36.5224C19.9639 36.6283 20.2663 36.6337 20.525 36.5387L33.9557 28.6299L31.388 30.1418L24.2861 18.4709ZM25.3274 33.7107L20.2009 25.535L23.3303 20.1392L30.063 30.9221L25.3274 33.7107Z" fill="#2D374B"/>
<path d="M20.2012 25.5346L25.3275 33.7103L30.0632 30.9216L23.3305 20.1387L20.2012 25.5346Z" fill="#28A0F0"/>
<path d="M34.3755 27.642L34.372 25.4075L27.0154 13.7646L24.2861 18.4705L31.3879 30.1413L33.9557 28.6294C34.2075 28.4215 34.3599 28.1165 34.3759 27.7874L34.3755 27.642Z" fill="#28A0F0"/>
<path d="M3.54785 29.7497L7.1739 31.8728L19.2406 12.2092L17.1927 12.1543C15.4478 12.1292 13.5681 12.5902 12.7054 14.0212L5.85312 24.8132L3.54785 28.4123V29.7497V29.7497Z" fill="white"/>
<path d="M26.2054 12.209L20.8079 12.2289L8.59668 32.7047L12.8649 35.2017L14.0256 33.2015L26.2054 12.209Z" fill="white"/>
<path d="M36.6501 12.1808C36.6049 11.0338 35.9938 9.98384 35.0364 9.37254L21.6182 1.53162C20.6712 1.04711 19.4882 1.04649 18.5395 1.53131C18.4274 1.58879 5.49059 9.21254 5.49059 9.21254C5.31154 9.29982 5.13908 9.40373 4.97687 9.52173C4.12228 10.1441 3.60136 11.1112 3.54785 12.1737V28.4121L5.85312 24.813L5.83299 12.2835C5.83567 12.2377 5.84134 12.1926 5.84937 12.1481C5.9015 11.8533 6.06348 11.5903 6.30737 11.4126C6.36822 11.3683 19.526 3.62928 19.5678 3.60804C19.8771 3.45022 20.2701 3.44835 20.5798 3.60314L33.8244 11.3443C34.1378 11.5471 34.3342 11.8909 34.3516 12.2668V27.7878C34.3356 28.1169 34.2076 28.4218 33.9557 28.6298L31.388 30.1417L30.063 30.9219L25.3274 33.7106L20.525 36.5386C20.2663 36.6336 19.9639 36.6282 19.7073 36.5222L14.0253 33.2015L12.8646 35.2018L17.9708 38.1891C18.1397 38.2868 18.2901 38.3732 18.4136 38.4436C18.6047 38.5525 18.735 38.6254 18.781 38.6481C19.1439 38.8273 19.6662 38.9315 20.1367 38.9315C20.5681 38.9315 20.9889 38.851 21.3869 38.6925L35.3361 30.484C36.1367 29.8537 36.6077 28.9031 36.6501 27.8733V12.1808Z" fill="#96BEDC"/>
</svg>
