<svg width="40" height="40" viewBox="0 0 40 40" fill="none" xmlns="http://www.w3.org/2000/svg">
<circle cx="20" cy="20" r="20" fill="#627EEA"/>
<path d="M20.0435 5.49159V5.50604C20.058 5.57829 20.058 5.66499 20.058 5.75169V16.1701C20.0435 16.2279 20.0002 16.2423 19.9568 16.2712C19.6534 16.4157 19.3644 16.5458 19.0609 16.6758C18.6419 16.8637 18.2084 17.066 17.7893 17.2538L16.2721 17.9474C15.8531 18.1353 15.434 18.3231 15.0294 18.511C14.5381 18.7422 14.0324 18.9589 13.5411 19.1901C13.122 19.378 12.703 19.5803 12.2695 19.7681C11.9227 19.9271 11.5759 20.0716 11.2435 20.2305C11.2146 20.245 11.1857 20.2594 11.1568 20.2594C11.1424 20.2594 11.1424 20.2594 11.1279 20.245L11.5181 19.5947C12.2695 18.352 13.0064 17.1238 13.7578 15.8811C14.5526 14.5517 15.3618 13.2223 16.1565 11.8929C16.8934 10.6647 17.6448 9.43642 18.3818 8.20818C18.9164 7.31228 19.4655 6.41639 20.0002 5.52049C20.0146 5.49159 20.0291 5.47714 20.0291 5.44824H20.0435C20.0291 5.46269 20.0435 5.47714 20.0435 5.49159Z" fill="white"/>
<path d="M28.9158 20.2446L28.9303 20.2591L26.8061 21.5162L20.1302 25.4611C20.1013 25.4755 20.0724 25.49 20.058 25.5044C20.0146 25.5044 20.0146 25.4611 20.0146 25.4466V25.3166V16.3865C20.0146 16.3432 20.0146 16.2854 20.0291 16.242C20.0435 16.1842 20.0869 16.1987 20.1302 16.2131C20.3181 16.2998 20.5204 16.3865 20.7082 16.4732C21.2718 16.7333 21.8353 16.9934 22.3989 17.2391C22.8902 17.4558 23.367 17.687 23.8583 17.9038C24.3496 18.1205 24.8409 18.3517 25.3322 18.5685C25.7513 18.7563 26.1848 18.9586 26.6038 19.1465C27.0229 19.3343 27.4564 19.5366 27.8754 19.7244C28.2078 19.8689 28.5401 20.0279 28.8725 20.1724C28.8725 20.2157 28.8869 20.2302 28.9158 20.2446Z" fill="#8197EE"/>
<path d="M20.0435 34.4767C20.0435 34.4912 20.0291 34.5056 20.0291 34.5201H20.0146C20.0146 34.4912 19.9857 34.4767 19.9713 34.4478C19.0754 33.1907 18.1795 31.9191 17.2836 30.6619C16.3732 29.3759 15.4485 28.0754 14.5381 26.7894C13.6567 25.5467 12.7608 24.2895 11.8793 23.0468C11.6481 22.7145 11.4169 22.3966 11.1857 22.0642C11.1713 22.0353 11.1568 22.0209 11.1279 21.9775C11.1713 21.9775 11.2002 22.0064 11.2146 22.0209C12.4718 22.7578 13.7145 23.4948 14.9716 24.2317C16.4166 25.0843 17.8471 25.9368 19.2921 26.7894L20.0291 27.2229C20.058 27.2518 20.058 27.2807 20.058 27.3096V34.2744C20.058 34.3467 20.058 34.4189 20.0435 34.4767Z" fill="white"/>
<path d="M11.1133 20.2741V20.2596C11.5757 20.0573 12.0236 19.8406 12.486 19.6383C13.0785 19.3638 13.6709 19.1037 14.2634 18.8291C14.7113 18.6268 15.1737 18.4101 15.6217 18.2078C16.2864 17.9043 16.9366 17.6153 17.6013 17.3119C18.0492 17.1096 18.4972 16.9073 18.9596 16.6905C19.2775 16.546 19.6098 16.4015 19.9277 16.257C19.9566 16.2426 20 16.2281 20.0144 16.1992C20.0289 16.1992 20.0289 16.2137 20.0144 16.2281V25.4038C20.0144 25.4472 20 25.4905 20.0289 25.5194C20 25.5628 19.9711 25.5194 19.9566 25.505C19.8266 25.4327 19.6965 25.3605 19.5665 25.2738C16.7776 23.6265 13.9744 21.9647 11.1855 20.3174C11.1711 20.303 11.1422 20.2885 11.1133 20.2741Z" fill="#C0CBF6"/>
<path d="M28.8871 21.9775H28.9015C28.9015 22.0064 28.8726 22.0353 28.8582 22.0642C26.1994 25.8068 23.5406 29.5637 20.8818 33.3063C20.6073 33.6964 20.3183 34.0866 20.0437 34.4767C20.0293 34.4623 20.0293 34.4478 20.0293 34.4334V34.3467V27.3385V27.2084C20.6362 26.8472 21.2286 26.5004 21.8355 26.1391C24.1764 24.7519 26.5173 23.3792 28.8437 21.992C28.8582 22.0064 28.8726 21.992 28.8871 21.9775Z" fill="#C0CBF6"/>
<path d="M20.0289 16.2277V16.1988V16.1121V5.62146C20.0289 5.57811 20.0144 5.54921 20.0433 5.50586C22.9767 10.3755 25.91 15.2307 28.8289 20.1003C28.8578 20.1436 28.9012 20.2014 28.9156 20.2592C28.7133 20.187 28.5255 20.0858 28.3376 19.9991C28.1064 19.898 27.8608 19.7824 27.6296 19.6812C27.4851 19.609 27.3261 19.5512 27.1816 19.4789C26.936 19.3633 26.6903 19.2622 26.4447 19.1466C26.3002 19.0888 26.1557 19.0165 26.0112 18.9443L25.0575 18.5108C24.8985 18.4385 24.7396 18.3663 24.5662 18.294L23.8726 17.9906C23.7281 17.9328 23.5836 17.8605 23.4391 17.7883L22.4854 17.3548C22.3264 17.2825 22.1675 17.2103 21.9941 17.138L21.3005 16.8346C21.1415 16.7623 20.997 16.6901 20.8381 16.6178C20.5635 16.4878 20.289 16.3577 20 16.2421C20.0433 16.2277 20.0289 16.2277 20.0289 16.2277Z" fill="#C0CBF6"/>
</svg>
