<svg width="40" height="40" viewBox="0 0 40 40" fill="none" xmlns="http://www.w3.org/2000/svg">
<circle cx="20" cy="20" r="20" fill="#FE0420"/>
<path fill-rule="evenodd" clip-rule="evenodd" d="M14.6144 14.3275C14.1629 14.369 13.554 14.482 13.2611 14.5784C12.9683 14.6748 12.4946 14.9033 12.2083 15.0862C11.922 15.2692 11.5331 15.578 11.3442 15.7726C11.1551 15.9672 10.858 16.3487 10.6836 16.6202C10.5093 16.8919 10.2578 17.431 10.1248 17.8182C9.99165 18.2054 9.75181 19.0844 9.59171 19.7715C9.37352 20.7083 9.29982 21.294 9.29711 22.1137C9.29389 23.1041 9.32002 23.2568 9.57474 23.7397C9.72933 24.0328 10.0104 24.4035 10.1993 24.5634C10.3882 24.7234 10.8296 24.9849 11.1803 25.1447C11.5411 25.309 12.2026 25.4907 12.704 25.5631C13.4514 25.6712 13.7454 25.6659 14.5843 25.5288C15.2034 25.4276 15.8464 25.2411 16.2878 25.0346C16.7589 24.8143 17.1785 24.5124 17.5388 24.1346C17.8368 23.8221 18.2481 23.2275 18.4528 22.8135C18.6574 22.3994 18.939 21.5881 19.0785 21.0104C19.2181 20.4329 19.404 19.5486 19.4918 19.0455C19.5794 18.5424 19.6513 17.9346 19.6513 17.6948C19.6513 17.455 19.5826 17.0275 19.4986 16.7447C19.4145 16.4619 19.2022 16.0352 19.0267 15.7964C18.8511 15.5577 18.4935 15.2207 18.232 15.0474C17.9705 14.8742 17.5363 14.6594 17.267 14.5699C16.9978 14.4805 16.4755 14.3724 16.1064 14.3296C15.7373 14.2868 15.0659 14.2859 14.6144 14.3275ZM22.2253 14.6893C22.1452 14.8509 22.0271 15.2406 21.9626 15.5555C21.8982 15.8704 21.6086 17.2523 21.319 18.6264C21.0294 20.0005 20.7476 21.3121 20.6926 21.5411C20.6378 21.7702 20.4653 22.5665 20.3094 23.3108C20.1534 24.0551 20.0236 24.828 20.0208 25.0284L20.0156 25.3927L21.3896 25.4218C22.6192 25.4477 22.7737 25.4313 22.8584 25.2656C22.9104 25.1637 23.1118 24.3193 23.3057 23.3889L23.6582 21.6973L24.9078 21.6936C25.595 21.6917 26.5188 21.6256 26.9605 21.5469C27.4021 21.4681 28.0132 21.2893 28.3184 21.1495C28.6236 21.0098 29.0481 20.7421 29.2617 20.5545C29.4753 20.367 29.8071 19.9456 29.999 19.6184C30.1908 19.291 30.4291 18.6996 30.5284 18.3042C30.646 17.8362 30.6903 17.3766 30.6552 16.9869C30.6213 16.6104 30.5018 16.2186 30.3333 15.9311C30.1846 15.6773 29.8466 15.329 29.5735 15.1481C29.3029 14.969 28.8451 14.7441 28.5563 14.6486C28.1324 14.5084 27.4851 14.4673 25.2009 14.4353L22.3708 14.3957L22.2253 14.6893ZM16.1528 16.8749C16.2942 16.9794 16.4601 17.1726 16.5213 17.3041C16.5824 17.4355 16.6324 17.7327 16.6324 17.9644C16.6324 18.196 16.5368 18.8547 16.42 19.4283C16.3031 20.0017 16.1421 20.7218 16.0623 21.0282C15.9825 21.3348 15.836 21.7567 15.7367 21.9657C15.6375 22.1749 15.3934 22.5042 15.1942 22.6976C14.9952 22.891 14.6634 23.096 14.4571 23.1534C14.2508 23.2106 13.9049 23.2578 13.6884 23.2581C13.4718 23.2584 13.1353 23.1921 12.9405 23.1108C12.7437 23.0286 12.514 22.8229 12.4234 22.6475C12.3337 22.4741 12.2603 22.1286 12.2603 21.8797C12.2603 21.6308 12.3768 20.8906 12.5192 20.2349C12.6616 19.5793 12.8181 18.8781 12.8671 18.6769C12.9161 18.4756 13.0354 18.1477 13.1322 17.9482C13.229 17.7487 13.366 17.5152 13.4366 17.4293C13.5072 17.3434 13.6665 17.1867 13.7906 17.0811C13.9147 16.9754 14.195 16.8225 14.4135 16.7411C14.6513 16.6526 15.0285 16.6116 15.3532 16.639C15.6515 16.6642 16.0113 16.7703 16.1528 16.8749ZM27.182 16.8162C27.3215 16.8798 27.4876 17.0459 27.5512 17.1854C27.6147 17.325 27.6668 17.551 27.6668 17.6877C27.6668 17.8243 27.6169 18.0681 27.556 18.2293C27.4951 18.3904 27.3195 18.6569 27.1656 18.8214C27.0119 18.9859 26.7353 19.185 26.551 19.2638C26.3409 19.3537 25.8269 19.4071 25.1718 19.4071C24.5973 19.4071 24.1274 19.3932 24.1274 19.3761C24.1274 19.359 24.2446 18.7921 24.3877 18.1162C24.5308 17.4402 24.6479 16.8452 24.6479 16.7939C24.6479 16.7426 25.161 16.7006 25.7881 16.7006C26.4152 16.7006 27.0424 16.7527 27.182 16.8162Z" fill="white"/>
</svg>
