<svg width="40" height="40" viewBox="0 0 40 40" fill="none" xmlns="http://www.w3.org/2000/svg">
<circle cx="20" cy="20" r="20" fill="#8247E5"/>
<path d="M26.6346 15.4853C26.1626 15.2021 25.5491 15.2021 25.03 15.4853L21.3491 17.6561L18.8479 19.0719L15.1669 21.2427C14.695 21.5259 14.0815 21.5259 13.5624 21.2427L10.6365 19.5438C10.1645 19.2606 9.83419 18.7415 9.83419 18.1752V14.8246C9.83419 14.2583 10.1173 13.7392 10.6365 13.456L13.5152 11.8043C13.9871 11.5211 14.6006 11.5211 15.1197 11.8043L17.9984 13.456C18.4703 13.7392 18.8007 14.2583 18.8007 14.8246V16.9954L21.3019 15.5325V13.3616C21.3019 12.7953 21.0187 12.2762 20.4996 11.9931L15.1669 8.87838C14.695 8.59523 14.0815 8.59523 13.5624 8.87838L8.13527 11.9931C7.61616 12.2762 7.33301 12.7953 7.33301 13.3616V19.6382C7.33301 20.2045 7.61616 20.7236 8.13527 21.0067L13.5624 24.1214C14.0343 24.4046 14.6478 24.4046 15.1669 24.1214L18.8479 21.9978L21.3491 20.5348L25.03 18.4112C25.502 18.128 26.1155 18.128 26.6346 18.4112L29.5133 20.0629C29.9852 20.3461 30.3155 20.8652 30.3155 21.4315V24.7821C30.3155 25.3484 30.0324 25.8675 29.5133 26.1507L26.6346 27.8496C26.1626 28.1327 25.5491 28.1327 25.03 27.8496L22.1513 26.1979C21.6794 25.9147 21.3491 25.3956 21.3491 24.8293V22.6585L18.8479 24.1214V26.2923C18.8479 26.8586 19.131 27.3777 19.6501 27.6608L25.0772 30.7755C25.5491 31.0587 26.1626 31.0587 26.6818 30.7755L32.1088 27.6608C32.5808 27.3777 32.9111 26.8586 32.9111 26.2923V20.0157C32.9111 19.4494 32.628 18.9303 32.1088 18.6471L26.6346 15.4853Z" fill="white"/>
</svg>
